<svg xmlns="http://www.w3.org/2000/svg" version="1.1" xmlns:xlink="http://www.w3.org/1999/xlink" xmlns:svgjs="http://svgjs.com/svgjs" width="1920" height="1080" preserveAspectRatio="none" viewBox="0 0 1920 1080"><g mask="url(&quot;#SvgjsMask1018&quot;)" fill="none"><rect width="1920" height="1080" x="0" y="0" fill="rgba(211, 130, 26, 1)"></rect><path d="M0,731.456C139.9,750.429,290.67,711.951,400.66,623.44C506.924,537.927,538.885,394.913,579.873,264.819C616.439,148.761,651.015,29.038,625.416,-89.921C600.689,-204.831,506.837,-284.703,440.711,-381.878C364.401,-494.019,326.938,-641.57,206.963,-704.852C80.277,-771.674,-79.15,-776.719,-213.443,-726.919C-344.561,-678.297,-416.885,-546.266,-507.627,-439.861C-597.591,-334.368,-723.204,-244.05,-742.335,-106.732C-761.449,30.465,-682.572,161.009,-607.563,277.465C-540.114,382.185,-436.202,448.92,-336.42,523.48C-228.626,604.027,-133.343,713.372,0,731.456" fill="#a96815"></path><path d="M1920 1664.1779999999999C2042.184 1673.991 2170.178 1694.868 2279.42 1639.268 2393.022 1581.449 2453.603 1461.902 2524.96 1356.276 2610.083 1230.274 2747.6639999999998 1114.251 2736.557 962.597 2725.442 810.8330000000001 2575.009 713.539 2469.832 603.568 2369.765 498.94000000000005 2281.39 358.193 2138.18 336.948 1996.519 315.933 1886.567 457.85 1748.694 496.587 1608.3890000000001 536.007 1420.67 454.49300000000005 1325.863 565.178 1230.9279999999999 676.012 1328.155 848.274 1322.549 994.1 1317.683 1120.671 1241.882 1250.44 1295.1019999999999 1365.3809999999999 1348.2849999999999 1480.242 1481.667 1529.769 1595.8600000000001 1584.371 1698.323 1633.364 1806.79 1655.086 1920 1664.1779999999999" fill="#e69936"></path></g><defs><mask id="SvgjsMask1018"><rect width="1920" height="1080" fill="#ffffff"></rect></mask></defs></svg>